<svg width="24" height="25" viewBox="0 0 24 25" fill="none" xmlns="http://www.w3.org/2000/svg">
<path fill-rule="evenodd" clip-rule="evenodd" d="M5.31677 1.69111C5.88346 1.80823 6.33476 2.18897 6.61515 2.692L7.50836 4.29444C7.83737 4.88465 8.11424 5.38134 8.29505 5.81311C8.48686 6.27112 8.60078 6.72278 8.5487 7.22214C8.49663 7.72151 8.29197 8.13994 8.0098 8.54853C7.74379 8.93371 7.3704 9.36258 6.92669 9.87221L4.69884 12.4312C6.46568 15.3272 9.07461 17.9373 11.9736 19.706L14.5326 17.4781C15.0422 17.0344 15.4711 16.661 15.8563 16.395C16.2649 16.1128 16.6833 15.9082 17.1827 15.8561C17.682 15.804 18.1337 15.9179 18.5917 16.1098C19.0235 16.2906 19.5202 16.5674 20.1104 16.8965L21.7128 17.7897C22.2158 18.07 22.5966 18.5213 22.7137 19.088C22.832 19.6606 22.6575 20.2362 22.2719 20.7092C20.873 22.4256 18.6317 23.5184 16.2805 23.0441C14.8353 22.7526 13.4093 22.2669 11.6846 21.2777C8.21921 19.2904 5.11214 16.1816 3.12706 12.7202C2.13795 10.9955 1.65223 9.56954 1.36069 8.12428C0.886392 5.77306 1.97923 3.53178 3.69559 2.13287C4.16862 1.74733 4.74417 1.57276 5.31677 1.69111ZM13.3707 20.4784C14.5371 21.0532 15.5516 21.3668 16.5771 21.5737C18.2732 21.9159 19.9854 21.1403 21.1092 19.7615C21.2568 19.5805 21.2577 19.4541 21.2447 19.3916C21.2306 19.3232 21.1733 19.2062 20.9825 19.0999L19.416 18.2267C18.7803 17.8724 18.3572 17.6378 18.0123 17.4933C17.6849 17.3562 17.4971 17.3315 17.3382 17.348C17.1794 17.3646 17.0007 17.4276 16.7087 17.6293C16.401 17.8417 16.0354 18.1586 15.4865 18.6365L13.3707 20.4784ZM3.92636 11.0341L5.76835 8.91831C6.24618 8.36944 6.56306 8.00379 6.77553 7.69613C6.97721 7.4041 7.04023 7.2254 7.05679 7.06656C7.07336 6.90773 7.04857 6.71987 6.91148 6.39251C6.76705 6.04764 6.53243 5.62447 6.17812 4.98883L5.30494 3.42232C5.19856 3.23147 5.08158 3.1742 5.01317 3.16006C4.95066 3.14714 4.82429 3.14805 4.64326 3.2956C3.26448 4.41936 2.48894 6.13162 2.83107 7.82767C3.03795 8.85325 3.35164 9.86773 3.92636 11.0341Z" fill="#1B8354"/>
</svg>
