<svg width="28" height="28" viewBox="0 0 28 28" fill="none" xmlns="http://www.w3.org/2000/svg">
<path fill-rule="evenodd" clip-rule="evenodd" d="M13.2402 2.24036C14.3281 1.19755 16.0051 1.19755 17.093 2.24036C17.8101 2.92777 18.6985 3.88412 19.4128 4.9902C20.1209 6.08644 20.7083 7.40709 20.7083 8.80484C20.7083 11.4967 18.6117 14.2916 15.1666 14.2916C11.7215 14.2916 9.62492 11.4967 9.62492 8.80483C9.62492 7.40709 10.2123 6.08644 10.9203 4.9902C11.6347 3.88412 12.5231 2.92777 13.2402 2.24036ZM15.882 3.50369C15.471 3.10977 14.8622 3.10977 14.4512 3.50369C13.7885 4.13899 13.0039 4.98968 12.3904 5.93965C11.7705 6.89945 11.3749 7.88385 11.3749 8.80483C11.3749 10.6598 12.8127 12.5416 15.1666 12.5416C17.5205 12.5416 18.9583 10.6598 18.9583 8.80484C18.9583 7.88385 18.5627 6.89945 17.9428 5.93965C17.3292 4.98968 16.5447 4.13899 15.882 3.50369Z" fill="#067647"/>
<path d="M3.79159 16.3333C3.79159 15.85 4.18334 15.4583 4.66659 15.4583L7.46054 15.4583C7.93483 15.4583 8.40366 15.565 8.83021 15.7714L11.2125 16.9241C11.3999 17.0147 11.6079 17.0626 11.82 17.0626H13.0364C14.0133 17.0626 14.8972 17.5238 15.4496 18.2475L20.2642 16.7682L20.266 16.7677C21.5849 16.3576 22.9972 16.8509 23.8056 17.9703C24.5307 18.9744 24.2504 20.4228 23.1617 21.051L14.3936 26.1101C13.6294 26.551 12.7235 26.6601 11.8783 26.4093L4.41733 24.1953C3.95405 24.0579 3.68993 23.5709 3.8274 23.1076C3.96487 22.6443 4.45188 22.3802 4.91516 22.5176L12.3762 24.7316C12.7578 24.8448 13.1678 24.7969 13.519 24.5943L22.2872 19.5352C22.4521 19.4401 22.5222 19.1823 22.3868 18.9948C22.0055 18.4668 21.3651 18.2582 20.7848 18.439L20.7815 18.44L16.0398 19.8969C16.041 19.9307 16.0416 19.9647 16.0416 19.9989C16.0416 20.4552 15.731 20.8284 15.3225 20.9414L12.3581 21.761C11.6225 21.9643 10.8347 21.894 10.148 21.5617L7.60128 20.3295C7.16627 20.1191 6.98425 19.5958 7.19473 19.1608C7.4052 18.7258 7.92847 18.5438 8.36347 18.7542L10.9102 19.9864C11.2128 20.1329 11.5638 20.1649 11.8918 20.0743L14.1484 19.4503C13.943 19.0787 13.534 18.8126 13.0364 18.8126H11.82C11.3457 18.8126 10.8769 18.7058 10.4503 18.4994L8.06802 17.3467C7.88068 17.2561 7.6726 17.2083 7.46054 17.2083H4.66659C4.18334 17.2083 3.79159 16.8165 3.79159 16.3333Z" fill="#067647"/>
</svg>
