<svg width="16" height="16" viewBox="0 0 16 16" fill="none" xmlns="http://www.w3.org/2000/svg">
<path d="M14.2231 1.83121C12.7844 0.333932 10.4412 0.333934 9.00253 1.83121L8.40793 2.45004C8.16877 2.69894 8.17667 3.09459 8.42557 3.33375C8.67448 3.5729 9.07013 3.565 9.30928 3.3161L9.90388 2.69727C10.8507 1.71191 12.3749 1.71191 13.3217 2.69727C14.282 3.69668 14.282 5.32699 13.3217 6.3264L10.6222 9.1359C10.4725 9.29176 10.3094 9.42204 10.1376 9.5276C9.21422 10.0952 8.00484 9.96896 7.2044 9.1359C7.07419 9.00039 6.96177 8.85356 6.867 8.69835C6.68711 8.40375 6.30247 8.31076 6.00787 8.49065C5.71327 8.67054 5.62028 9.05519 5.80017 9.34979C5.94144 9.58115 6.10912 9.80014 6.30304 10.002C7.51513 11.2634 9.37323 11.4647 10.7922 10.5925C11.0544 10.4313 11.3004 10.2342 11.5236 10.002L14.2231 7.19246C15.6482 5.70925 15.6482 3.31442 14.2231 1.83121Z" fill="#1B8354"/>
<path d="M9.69746 5.99787C8.2588 4.5006 5.91554 4.5006 4.47688 5.99787L1.77736 8.80737C0.352207 10.2906 0.352208 12.6854 1.77736 14.1686C3.21602 15.6659 5.55928 15.6659 6.99794 14.1686L7.59275 13.5496C7.83191 13.3007 7.82401 12.905 7.57511 12.6659C7.32621 12.4267 6.93056 12.4346 6.69141 12.6835L6.09659 13.3026C5.14981 14.2879 3.6255 14.2879 2.67871 13.3026C1.71842 12.3032 1.71842 10.6728 2.67871 9.67344L5.37823 6.86394C6.32501 5.87858 7.84932 5.87858 8.79611 6.86394C8.92628 6.99942 9.03868 7.14621 9.13343 7.30137C9.31334 7.59596 9.69799 7.68892 9.99258 7.50902C10.2872 7.32911 10.3801 6.94446 10.2002 6.64987C10.059 6.41858 9.89133 6.19965 9.69746 5.99787Z" fill="#1B8354"/>
</svg>
