<svg width="24" height="25" viewBox="0 0 24 25" fill="none" xmlns="http://www.w3.org/2000/svg">
<path fill-rule="evenodd" clip-rule="evenodd" d="M14.92 3.19159C12.967 3.14252 11.033 3.14252 9.07999 3.19158L9.02182 3.19304C7.497 3.23133 6.27002 3.26214 5.2867 3.43339C4.2572 3.61268 3.42048 3.95656 2.71362 4.66611C2.00971 5.37269 1.66764 6.19738 1.49176 7.21019C1.32429 8.17456 1.29878 9.37159 1.26719 10.8544L1.26593 10.9132C1.24469 11.9095 1.24469 12.9001 1.26594 13.8964L1.26719 13.9551C1.29879 15.438 1.32429 16.635 1.49176 17.5994C1.66764 18.6122 2.00972 19.4369 2.71362 20.1435C3.42048 20.853 4.2572 21.1969 5.2867 21.3762C6.27001 21.5474 7.49697 21.5782 9.02177 21.6165L9.07999 21.618C11.033 21.6671 12.967 21.6671 14.92 21.618L14.9782 21.6165C16.503 21.5782 17.73 21.5474 18.7133 21.3762C19.7428 21.1969 20.5795 20.853 21.2864 20.1435C21.9903 19.4369 22.3324 18.6122 22.5082 17.5994C22.6757 16.635 22.7012 15.438 22.7328 13.9551L22.7341 13.8964C22.7553 12.9001 22.7553 11.9095 22.7341 10.9132L22.7328 10.8545C22.7012 9.37161 22.6757 8.17458 22.5082 7.2102C22.3324 6.1974 21.9903 5.37271 21.2864 4.66613C20.5795 3.95657 19.7428 3.61269 18.7133 3.4334C17.73 3.26215 16.503 3.23134 14.9782 3.19305L14.92 3.19159ZM9.11766 4.69111C11.0456 4.64267 12.9544 4.64268 14.8823 4.69112C16.479 4.73123 17.5947 4.76117 18.4559 4.91116C19.2835 5.05528 19.7994 5.29889 20.2237 5.72477C20.3977 5.89937 20.5405 6.08733 20.6582 6.30308L14.7173 9.66923C13.4621 10.3805 12.7003 10.6548 12.0001 10.6548C11.2999 10.6548 10.5381 10.3805 9.28285 9.66923L3.34181 6.30299C3.4595 6.08727 3.60237 5.89934 3.77629 5.72475C4.20055 5.29888 4.71652 5.05526 5.54405 4.91114C6.40529 4.76116 7.52099 4.73122 9.11766 4.69111ZM2.92102 7.78861C2.81754 8.58043 2.79468 9.58125 2.76559 10.9452C2.7448 11.9202 2.7448 12.8894 2.7656 13.8644C2.79877 15.4199 2.82385 16.5032 2.96964 17.3427C3.10923 18.1466 3.34907 18.656 3.77629 19.0848C4.20056 19.5107 4.71653 19.7543 5.54406 19.8984C6.4053 20.0484 7.521 20.0783 9.11767 20.1185C11.0456 20.1669 12.9544 20.1669 14.8823 20.1185C16.479 20.0783 17.5947 20.0484 18.4559 19.8984C19.2835 19.7543 19.7994 19.5107 20.2237 19.0848C20.6509 18.656 20.8908 18.1466 21.0304 17.3427C21.1762 16.5032 21.2012 15.4199 21.2344 13.8644C21.2552 12.8894 21.2552 11.9202 21.2344 10.9452C21.2053 9.58132 21.1825 8.58052 21.079 7.78872L15.4568 10.9743C14.1635 11.7071 13.1126 12.1548 12.0001 12.1548C10.8876 12.1548 9.83667 11.7071 8.54339 10.9743L2.92102 7.78861Z" fill="#1B8354"/>
</svg>
