<svg width="20" height="20" viewBox="0 0 20 20" fill="none" xmlns="http://www.w3.org/2000/svg">
<path fill-rule="evenodd" clip-rule="evenodd" d="M9.1665 1.04175C4.67919 1.04175 1.0415 4.67943 1.0415 9.16675C1.0415 13.6541 4.67919 17.2917 9.1665 17.2917C11.1852 17.2917 13.0319 16.5556 14.4529 15.337L17.8912 18.7754C18.1353 19.0194 18.531 19.0194 18.7751 18.7754C19.0192 18.5313 19.0192 18.1356 18.7751 17.8915L15.3368 14.4531C16.5553 13.0322 17.2915 11.1854 17.2915 9.16675C17.2915 4.67943 13.6538 1.04175 9.1665 1.04175ZM2.2915 9.16675C2.2915 5.36979 5.36955 2.29175 9.1665 2.29175C12.9635 2.29175 16.0415 5.36979 16.0415 9.16675C16.0415 12.9637 12.9635 16.0417 9.1665 16.0417C5.36955 16.0417 2.2915 12.9637 2.2915 9.16675Z" fill="#161616"/>
</svg>
