<svg width="90" height="35" viewBox="0 0 90 35" fill="none" xmlns="http://www.w3.org/2000/svg">
<g clip-path="url(#clip0_2036_87319)">
<path d="M65.3047 35.0002H68.577V19.2163L65.3047 21.0777V35.0002Z" fill="white"/>
<path d="M57.6365 22.9927H54.0369C51.6045 22.9927 49.6411 24.9401 49.6411 27.3287V30.6533C49.6411 33.0526 51.6154 34.9893 54.0369 34.9893H62.0432V32.1381H53.797C53.3061 32.1381 52.9134 31.7507 52.9134 31.2666V30.3305H62.0432V27.3287C62.0432 24.9294 60.0689 22.9927 57.6474 22.9927H57.6365ZM58.76 28.1356H52.9134V26.7154C52.9134 26.2312 53.3061 25.8439 53.797 25.8439H57.8874C58.3782 25.8439 58.7709 26.2312 58.7709 26.7154V28.1356H58.76Z" fill="white"/>
<path d="M85.6041 22.9927H82.8772L81.0338 24.0363C80.2593 23.38 79.2667 22.9927 78.165 22.9927H74.8273H71.8604V34.9893H75.1327V25.8439H76.9325H78.405C78.885 25.8439 79.2885 26.2312 79.2885 26.7154V34.9893H82.5609V27.3287C82.5609 26.8122 82.4627 26.3065 82.2991 25.8439H85.8441C86.335 25.8439 86.7276 26.2312 86.7276 26.7154V34.9893H90V27.3287C90 24.9294 88.0366 22.9927 85.6041 22.9927Z" fill="white"/>
<path d="M81.6885 14.6651V10.0386C81.6885 9.55443 82.0812 9.1671 82.572 9.1671H86.7388V6.30512H82.8229C80.3905 6.30512 78.4271 8.25256 78.4271 10.6411V14.6543H76.0274C75.5474 14.6543 75.1439 14.267 75.1439 13.7828V1.73242L71.8715 3.59378V13.1803C71.8715 13.6968 71.9697 14.2025 72.1333 14.6543H68.5883V6.31588H62.2618C59.8293 6.31588 57.866 8.26332 57.866 10.6519V14.6651H51.0922L49.4233 17.5271H71.5661L73.4095 16.4834C74.184 17.1397 75.1766 17.5271 76.2783 17.5271H90.0221V14.6759H81.7103L81.6885 14.6651ZM65.3051 14.6651H61.1383V10.0386C61.1383 9.55443 61.531 9.1671 62.0218 9.1671H65.316V14.6543L65.3051 14.6651Z" fill="white"/>
<path d="M24.6079 3.49677V10.4903L30.7708 6.99355V0L24.6079 3.49677Z" fill="white"/>
<path d="M30.749 20.9806L24.608 24.5096V31.5031L18.4451 34.9999L12.304 31.5031L18.4451 28.0064V20.9806L12.304 17.4838L6.14111 20.9806V13.987L12.304 10.4902L18.4451 13.987L24.608 10.4902V17.4838L30.749 20.9806Z" fill="white"/>
<path d="M36.9119 17.4838L30.749 20.9806L36.9119 24.5096L43.0857 20.9806V13.987L36.9119 10.4902V17.4838Z" fill="white"/>
<path d="M0 31.5031L6.14107 34.9999L12.304 31.5031L6.14107 28.0063L0 31.5031Z" fill="white"/>
</g>
<defs>
<clipPath id="clip0_2036_87319">
<rect width="90" height="35" fill="white"/>
</clipPath>
</defs>
</svg>
