<svg width="20" height="20" viewBox="0 0 20 20" fill="none" xmlns="http://www.w3.org/2000/svg">
<path d="M9.93953 18.1244C9.89037 18.1244 9.84118 18.1186 9.79118 18.1069C9.45618 18.0252 9.25036 17.6869 9.33203 17.3519C9.4162 17.0061 9.81866 15.8211 11.4553 15.1102C11.4745 15.1019 11.4945 15.0944 11.5145 15.0877C11.5387 15.0769 11.567 15.0644 11.6012 15.0527C12.2978 14.796 13.1604 14.3594 13.4879 14.0961C13.5037 14.0836 13.5203 14.0711 13.5378 14.0603L15.867 12.5403C15.9079 12.5028 15.907 12.4844 15.9062 12.4778C15.9028 12.4178 15.8354 12.2919 15.6929 12.1994C14.647 11.5036 13.6803 11.9077 12.212 12.6561C12.1112 12.7077 12.0103 12.7594 11.9095 12.8094C11.1153 13.2027 10.137 13.1444 9.35286 12.6578C8.6087 12.1961 8.16455 11.4269 8.16455 10.601C8.16455 9.77522 8.60872 9.00025 9.41455 8.45359C10.5446 7.68775 12.242 7.44527 13.3812 7.8836L15.1829 8.4094C15.3512 8.4594 15.5253 8.44026 15.6745 8.35609C15.8195 8.27443 15.922 8.14276 15.9637 7.98443C16.042 7.69193 15.8786 7.38939 15.5845 7.27772L13.6204 6.54522C13.6204 6.54522 13.617 6.54353 13.6145 6.5427L12.8729 6.31524C12.2629 6.13274 11.822 6.0652 11.4928 6.1052C10.937 6.17437 9.45038 6.83107 8.64372 7.22857C8.33455 7.38107 7.95955 7.25439 7.80705 6.94439C7.65455 6.63522 7.78115 6.26022 8.09115 6.10772C8.32365 5.99272 10.3928 4.98273 11.3411 4.86439C11.8495 4.80273 12.4512 4.88444 13.2362 5.11944L13.9945 5.35194C14.0029 5.35444 14.0112 5.35691 14.0195 5.36024C14.0262 5.36274 14.0337 5.36523 14.0404 5.36773L14.052 5.37188C14.2045 5.42688 14.3679 5.41938 14.5129 5.35105C14.6645 5.28022 14.7778 5.15194 14.8328 4.9911C14.9403 4.68194 14.7879 4.34525 14.4854 4.22108L12.9028 3.56687L12.7678 3.5169C12.3203 3.3519 12.0737 3.26187 11.8512 3.20937C11.5745 3.14603 11.2679 3.11689 10.9429 3.12522L10.9195 3.12693C10.8378 3.13193 10.792 3.13526 10.6129 3.17193C10.6062 3.1736 10.5995 3.17443 10.5929 3.17527C10.4154 3.20527 10.3162 3.23855 10.0978 3.31272L9.66951 3.45855C8.24368 3.94355 7.65288 4.14439 7.03955 4.59022C5.41372 5.77606 4.42783 7.12603 4.17367 7.93853C3.90283 8.8052 3.90283 9.87021 3.90283 11.9935L3.90283 17.5019C3.90283 17.8469 3.62283 18.1269 3.27783 18.1269C2.93283 18.1269 2.65283 17.8469 2.65283 17.5019L2.65283 11.9935C2.65283 9.74438 2.65281 8.61522 2.98031 7.56605C3.44864 6.07272 5.00371 4.52855 6.30371 3.58021C7.07204 3.02272 7.80534 2.77276 9.26701 2.2761L9.69783 2.12937C9.93367 2.04937 10.1054 1.99187 10.3737 1.94521C10.6112 1.89771 10.7078 1.8886 10.837 1.88026L10.8704 1.87774C10.8795 1.87774 10.8878 1.87687 10.897 1.87603C11.3328 1.86437 11.7487 1.90358 12.1337 1.99192C12.4329 2.06192 12.7054 2.16189 13.1995 2.34356L13.3462 2.39776C13.3537 2.40109 13.362 2.40354 13.3695 2.40688L14.962 3.06524C15.877 3.44107 16.3404 4.46607 16.0154 5.39857C15.942 5.61441 15.8312 5.81107 15.6912 5.98191L16.0262 6.10691C16.9262 6.44774 17.4187 7.39192 17.1737 8.30442C17.0462 8.79025 16.732 9.19604 16.2895 9.44521C15.8429 9.69687 15.3254 9.7552 14.832 9.60854L13.0062 9.07606C12.987 9.07023 12.9679 9.06361 12.9495 9.05694C12.1879 8.75277 10.9178 8.94691 10.1178 9.48858C9.65284 9.80358 9.41699 10.1785 9.41699 10.601C9.41699 10.9977 9.63449 11.3603 10.0145 11.5961C10.4337 11.8561 10.947 11.8927 11.3545 11.6911C11.4503 11.6427 11.5487 11.5927 11.6479 11.5427C12.9895 10.8594 14.6595 10.0086 16.3845 11.1561C16.842 11.4544 17.1329 11.9261 17.1579 12.4144C17.1804 12.8436 16.9953 13.2394 16.6387 13.5285C16.622 13.5419 16.6045 13.5544 16.587 13.5661L14.2495 15.0919C13.747 15.4844 12.7511 15.9636 12.0461 16.2236L12.0345 16.2302C11.9962 16.2502 11.9562 16.2661 11.9154 16.2777C11.677 16.3877 10.7428 16.8661 10.552 17.6494C10.4828 17.9352 10.227 18.1269 9.94531 18.1269L9.93953 18.1244ZM12.007 16.2344C12.007 16.2344 12.007 16.2344 12.0062 16.2344C12.0062 16.2344 12.0062 16.2344 12.007 16.2344Z" fill="white"/>
</svg>
