<svg width="18" height="18" viewBox="0 0 18 18" fill="none" xmlns="http://www.w3.org/2000/svg">
<path fill-rule="evenodd" clip-rule="evenodd" d="M0.0415039 2.5415C0.0415039 1.16079 1.16079 0.0415039 2.5415 0.0415039C3.92222 0.0415039 5.0415 1.16079 5.0415 2.5415C5.0415 3.92222 3.92222 5.0415 2.5415 5.0415C1.16079 5.0415 0.0415039 3.92222 0.0415039 2.5415ZM2.5415 1.2915C1.85115 1.2915 1.2915 1.85115 1.2915 2.5415C1.2915 3.23186 1.85115 3.7915 2.5415 3.7915C3.23186 3.7915 3.7915 3.23186 3.7915 2.5415C3.7915 1.85115 3.23186 1.2915 2.5415 1.2915Z" fill="white"/>
<path fill-rule="evenodd" clip-rule="evenodd" d="M2.29589 6.29151H2.78713C3.14781 6.29146 3.47851 6.29143 3.74752 6.32759C4.04375 6.36742 4.35685 6.46113 4.61437 6.71865C4.87189 6.97616 4.9656 7.28927 5.00543 7.5855C5.04159 7.85451 5.04156 8.1852 5.04151 8.54588L5.04151 15.7038C5.04156 16.0645 5.04159 16.3952 5.00543 16.6642C4.9656 16.9604 4.87189 17.2735 4.61437 17.531C4.35685 17.7886 4.04375 17.8823 3.74752 17.9221C3.47851 17.9583 3.14781 17.9582 2.78713 17.9582H2.29589C1.93521 17.9582 1.60451 17.9583 1.3355 17.9221C1.03927 17.8823 0.726165 17.7886 0.468646 17.531C0.211126 17.2735 0.11742 16.9604 0.0775927 16.6642C0.0414253 16.3952 0.0414643 16.0645 0.0415068 15.7038L0.0415068 8.54589C0.0414643 8.18521 0.0414253 7.85451 0.0775927 7.5855C0.11742 7.28927 0.211126 6.97616 0.468646 6.71865C0.726165 6.46113 1.03927 6.36742 1.3355 6.32759C1.60451 6.29143 1.93521 6.29146 2.29589 6.29151ZM1.35254 7.60254L1.35457 7.60139C1.35618 7.60055 1.35894 7.59921 1.36315 7.59748C1.3813 7.59001 1.4216 7.57726 1.50206 7.56645C1.67767 7.54284 1.92267 7.54151 2.33318 7.54151H2.74984C3.16035 7.54151 3.40535 7.54284 3.58096 7.56645C3.66142 7.57726 3.70172 7.59001 3.71987 7.59748C3.72408 7.59921 3.72684 7.60055 3.72845 7.60139L3.73048 7.60254L3.73163 7.60457C3.73247 7.60618 3.73381 7.60894 3.73554 7.61315C3.74301 7.6313 3.75576 7.6716 3.76657 7.75206C3.79018 7.92767 3.79151 8.17267 3.79151 8.58318L3.79151 15.6665C3.79151 16.077 3.79018 16.322 3.76657 16.4976C3.75576 16.5781 3.74301 16.6184 3.73554 16.6365C3.73381 16.6407 3.73247 16.6435 3.73163 16.6451L3.73048 16.6471L3.72845 16.6483C3.72684 16.6491 3.72408 16.6505 3.71987 16.6522C3.70172 16.6597 3.66142 16.6724 3.58096 16.6832C3.40535 16.7068 3.16035 16.7082 2.74984 16.7082H2.33318C1.92267 16.7082 1.67767 16.7068 1.50206 16.6832C1.4216 16.6724 1.3813 16.6597 1.36315 16.6522C1.35894 16.6505 1.35618 16.6491 1.35457 16.6483L1.35254 16.6471L1.35139 16.6451C1.35055 16.6435 1.3492 16.6407 1.34748 16.6365C1.34001 16.6184 1.32726 16.5781 1.31645 16.4976C1.29284 16.322 1.29151 16.077 1.29151 15.6665L1.29151 8.58318C1.29151 8.17267 1.29284 7.92767 1.31645 7.75206C1.32726 7.6716 1.34001 7.6313 1.34748 7.61315C1.34921 7.60894 1.35055 7.60618 1.35139 7.60457L1.35254 7.60254Z" fill="white"/>
<path fill-rule="evenodd" clip-rule="evenodd" d="M8.54589 6.29151C8.78721 6.29149 9.75908 6.29147 9.94358 6.30837C10.1431 6.32665 10.3603 6.36866 10.5696 6.49111C10.7857 6.61749 10.9655 6.79735 11.0919 7.01338L11.1019 7.03079C11.76 6.56609 12.5544 6.29171 13.4138 6.29171C15.6598 6.29171 17.9582 8.20356 17.9582 10.6667L17.9571 15.2878C17.9571 15.6484 17.957 15.979 17.9208 16.248C17.8809 16.5441 17.7872 16.8572 17.5297 17.1146C17.2722 17.372 16.9591 17.4657 16.6629 17.5055C16.394 17.5417 16.0633 17.5417 15.7027 17.5416H15.2125C14.8519 17.5417 14.5211 17.5417 14.2521 17.5055C13.9559 17.4657 13.6428 17.372 13.3853 17.1145C13.1278 16.857 13.0341 16.5438 12.9942 16.2476C12.9581 15.9786 12.9581 15.6479 12.9581 15.2872L12.9581 11.4999C12.9581 11.1187 12.6761 10.8749 12.4064 10.8749C11.9754 10.8749 11.7437 11.0402 11.5844 11.3046C11.3972 11.6155 11.2916 12.1072 11.2916 12.7499L11.2915 15.7038C11.2916 16.0645 11.2916 16.3952 11.2554 16.6642C11.2156 16.9604 11.1219 17.2735 10.8644 17.531C10.6069 17.7886 10.2938 17.8823 9.99753 17.9221C9.72852 17.9583 9.39782 17.9582 9.03715 17.9582H8.54587C8.1852 17.9582 7.85451 17.9583 7.5855 17.9221C7.28927 17.8823 6.97617 17.7886 6.71865 17.531C6.46113 17.2735 6.36742 16.9604 6.32759 16.6642C6.29143 16.3952 6.29146 16.0645 6.29151 15.7038L6.29151 8.54589C6.29146 8.18521 6.29143 7.85451 6.32759 7.5855C6.36742 7.28927 6.46113 6.97616 6.71865 6.71865C6.97617 6.46113 7.28927 6.36742 7.5855 6.32759C7.85451 6.29143 8.18521 6.29146 8.54589 6.29151ZM8.58317 7.5415C8.17266 7.5415 7.92766 7.54283 7.75206 7.56644C7.69567 7.56425 7.57961 7.5983 7.56644 7.75206C7.54283 7.92766 7.5415 8.17266 7.5415 8.58317L7.5415 15.6665C7.5415 16.077 7.54283 16.322 7.56644 16.4976C7.5765 16.5992 7.69438 16.6637 7.75206 16.6832C7.92766 16.7068 8.17266 16.7082 8.58317 16.7082H8.99985C9.41036 16.7082 9.65536 16.7068 9.83096 16.6832C9.8883 16.6688 10.0057 16.6114 10.0166 16.4976C10.0402 16.322 10.0415 16.077 10.0415 15.6665L10.0416 12.7499C10.0416 12.012 10.1559 11.2537 10.5137 10.6597C10.8994 10.0193 11.5376 9.62494 12.4064 9.62494C13.4365 9.62494 14.2081 10.5005 14.2081 11.4999V15.2499C14.2081 15.6604 14.2095 15.9054 14.2331 16.081C14.2331 16.2128 14.3127 16.2348 14.3748 16.2521C14.3913 16.2566 14.4065 16.2608 14.4187 16.2667C14.5943 16.2903 14.8393 16.2916 15.2498 16.2916L15.6654 16.2916C16.0759 16.2916 16.3208 16.2903 16.4964 16.2667C16.5542 16.2452 16.6722 16.1781 16.682 16.0811C16.7056 15.9056 16.707 15.6606 16.7071 15.2502L16.7082 10.6666C16.7081 8.98763 15.0671 7.5417 13.4138 7.5417C12.5159 7.5417 11.7034 7.98073 11.164 8.68987C11.0016 8.90335 10.7211 8.9894 10.4669 8.90372C10.2127 8.81803 10.0416 8.57971 10.0416 8.31148C10.0415 8.03734 10.0409 7.87399 10.0299 7.7535C10.023 7.62745 9.89347 7.56742 9.82953 7.55315C9.70904 7.54212 9.54568 7.5415 9.27155 7.5415L8.58317 7.5415Z" fill="white"/>
</svg>
