<svg width="63" height="44" viewBox="0 0 63 44" fill="none" xmlns="http://www.w3.org/2000/svg">
<path d="M6.57373 0.542969H56.4897C59.7857 0.543208 62.4575 3.21476 62.4575 6.51074V36.8945C62.4573 40.1903 59.7855 42.8621 56.4897 42.8623H6.57373C3.27773 42.8623 0.606171 40.1905 0.605957 36.8945V6.51074C0.605957 3.21461 3.2776 0.542969 6.57373 0.542969Z" fill="white"/>
<path d="M6.57373 0.542969H56.4897C59.7857 0.543208 62.4575 3.21476 62.4575 6.51074V36.8945C62.4573 40.1903 59.7855 42.8621 56.4897 42.8623H6.57373C3.27773 42.8623 0.606171 40.1905 0.605957 36.8945V6.51074C0.605957 3.21461 3.2776 0.542969 6.57373 0.542969Z" stroke="#D2D6DB" stroke-width="1.08512"/>
<path d="M27.9398 23.2615H6.57373V30.3793H27.9398V23.2615Z" fill="#84B740"/>
<path d="M27.94 13.5491H6.57397V20.6732H27.94V13.5491Z" fill="#259BD6"/>
<path d="M49.3062 28.9328L49.211 28.9519C48.8811 29.0153 48.7606 29.0407 48.5195 29.0407C47.9613 29.0407 47.3015 28.7552 47.3015 27.4103C47.3015 26.7188 47.4157 25.799 48.4561 25.799H48.4624C48.64 25.8117 48.8431 25.8307 49.2237 25.9449L49.3062 25.9702V28.9328ZM49.4774 22.2274L49.3062 22.2591V24.7459L49.1539 24.7015L49.1095 24.6888C48.9382 24.638 48.5449 24.5239 48.1643 24.5239C46.0835 24.5239 45.6458 26.0971 45.6458 27.4166C45.6458 29.2246 46.6608 30.265 48.4307 30.265C49.1793 30.265 49.7312 30.1889 50.2894 30.0049C50.8033 29.84 50.9873 29.6053 50.9873 29.1041V21.9673C50.4924 22.0561 49.9786 22.1449 49.4774 22.2274Z" fill="#27292D"/>
<path d="M55.4913 28.9773L55.4024 29.0027L55.0852 29.0851C54.7871 29.1613 54.5206 29.2057 54.3176 29.2057C53.8292 29.2057 53.5374 28.9646 53.5374 28.5522C53.5374 28.2858 53.6579 27.8354 54.4572 27.8354H55.4913V28.9773ZM54.7617 24.4922C54.121 24.4922 53.4612 24.6064 52.6429 24.8601L52.11 25.0187L52.2876 26.2241L52.8078 26.0528C53.3534 25.8751 54.0322 25.761 54.5397 25.761C54.7681 25.761 55.4659 25.761 55.4659 26.5159V26.8458H54.4953C52.7253 26.8458 51.907 27.4104 51.907 28.622C51.907 29.6561 52.6619 30.2778 53.9307 30.2778C54.324 30.2778 54.8696 30.2016 55.339 30.0875L55.3644 30.0811L55.3897 30.0875L55.5483 30.1128C56.0432 30.2016 56.557 30.2905 57.0582 30.3856V26.4271C57.0582 25.1456 56.2842 24.4922 54.7617 24.4922Z" fill="#27292D"/>
<path d="M43.1646 28.9773L43.0758 29.0027L42.7586 29.0851C42.4604 29.1613 42.2003 29.2057 41.991 29.2057C41.5025 29.2057 41.2107 28.9646 41.2107 28.5522C41.2107 28.2858 41.3312 27.8354 42.1242 27.8354H43.1582V28.9773H43.1646ZM42.4414 24.4922C41.7943 24.4922 41.1409 24.6064 40.3225 24.8601L39.7897 25.0187L39.9673 26.2241L40.4875 26.0528C41.0331 25.8751 41.7119 25.761 42.2194 25.761C42.4477 25.761 43.1456 25.761 43.1456 26.5159V26.8458H42.175C40.405 26.8458 39.5803 27.4104 39.5803 28.622C39.5803 29.6561 40.3352 30.2778 41.6104 30.2778C42.0037 30.2778 42.5492 30.2016 43.0187 30.0875L43.0441 30.0811L43.0694 30.0875L43.2217 30.1128C43.7228 30.2016 44.2304 30.2905 44.7315 30.392V26.4334C44.7379 25.1393 43.9639 24.4922 42.4414 24.4922Z" fill="#27292D"/>
<path d="M36.4852 24.5049C35.6795 24.5049 35.0134 24.7713 34.766 24.8855L34.7026 24.9172L34.6455 24.8728C34.3029 24.6254 33.8017 24.4985 33.1039 24.4985C32.4886 24.4985 31.9113 24.5873 31.2832 24.7713C30.744 24.9363 30.5347 25.1964 30.5347 25.6848V30.208H32.2221V26.0274L32.3046 26.002C32.6472 25.8878 32.8502 25.8688 33.0468 25.8688C33.5353 25.8688 33.7827 26.1289 33.7827 26.6364V30.2143H35.4448V26.5666C35.4448 26.3509 35.4004 26.2241 35.3941 26.1987L35.337 26.0908L35.4511 26.0401C35.7049 25.9259 35.984 25.8688 36.2758 25.8688C36.6121 25.8688 37.0117 26.002 37.0117 26.6364V30.2143H38.6675V26.4715C38.6675 25.1456 37.957 24.5049 36.4852 24.5049Z" fill="#27292D"/>
<path d="M54.2476 18.1928C54.0002 18.1928 53.5879 18.1674 53.2643 18.104L53.1692 18.0849V15.6425C53.1692 15.4395 53.1311 15.3127 53.1248 15.2936L53.074 15.1921L53.1819 15.1477C53.2073 15.135 53.2326 15.1287 53.2643 15.116L53.2834 15.1033C53.3214 15.0906 53.3595 15.0779 53.3976 15.0653C53.4166 15.0589 53.4293 15.0526 53.442 15.0526C53.8163 14.9511 54.1588 14.9637 54.3111 14.9511H54.3174C55.3515 14.9511 55.472 15.8709 55.472 16.5624C55.4657 17.9073 54.7996 18.1928 54.2476 18.1928ZM54.2413 13.5491C54.2286 13.5491 54.2096 13.5491 54.1969 13.5491C53.2263 13.5491 52.2303 13.8155 51.875 14.3357C51.6847 14.5895 51.5769 14.9067 51.5705 15.2809V17.7994C51.5705 18.0151 51.5261 18.0976 51.5198 18.1166L51.4627 18.2245H48.3986V16.4736H48.3923C48.3542 14.6275 47.2631 13.6125 45.6835 13.6125H45.4995H44.1419C44.0785 14.0629 44.0277 14.3801 43.9643 14.8305H45.4995C46.3052 14.8305 46.7302 15.5157 46.7302 16.5687V18.3323L46.6223 18.2752C46.6033 18.2689 46.4701 18.2245 46.2607 18.2245H43.609C43.5583 18.5607 43.4948 18.9984 43.425 19.4362H51.5769C51.856 19.3791 52.1796 19.3283 52.4587 19.2839C52.871 19.4869 53.6386 19.5948 54.1652 19.5948C55.9351 19.5948 57.0833 18.4085 57.0833 16.5814C57.077 14.7734 55.9668 13.5871 54.2413 13.5491Z" fill="#27292D"/>
<path d="M39.9489 20.1784H40.0251C41.795 20.1784 42.6197 19.5948 42.6197 18.1547C42.6197 17.1207 41.8648 16.296 40.596 16.296H38.9656C38.4772 16.296 38.1853 16.0169 38.1853 15.5474C38.1853 15.2302 38.3059 14.8369 39.1052 14.8369H42.6704C42.7466 14.3738 42.7846 14.082 42.8544 13.6189H39.1496C37.4241 13.6189 36.555 14.3421 36.555 15.5474C36.555 16.7401 37.3099 17.3618 38.5787 17.3618H40.209C40.6975 17.3618 40.9893 17.7487 40.9893 18.1547C40.9893 18.4212 40.8688 18.9731 40.0758 18.9731H39.803L34.582 18.9604H33.6305C32.8248 18.9604 32.2602 18.5037 32.2602 17.4442V16.7147C32.2602 15.6109 32.6979 14.9257 33.6305 14.9257H35.1784C35.2481 14.4563 35.2925 14.1581 35.356 13.7141H33.4275H33.2435C31.6639 13.7141 30.5727 14.7735 30.5347 16.6195V16.6893V17.4442C30.5727 19.2903 31.6639 20.1721 33.2435 20.1721H33.4275H34.785L37.6144 20.1784H39.3019H39.9489Z" fill="#27292D"/>
</svg>
