<svg width="32" height="32" viewBox="0 0 32 32" fill="none" xmlns="http://www.w3.org/2000/svg">
<rect x="1" y="1" width="30" height="30" rx="15" stroke="#D2D6DB" stroke-width="2"/>
<path d="M14.056 14.424H15.192C16.568 14.424 17.224 13.768 17.224 12.856V12.744C17.224 11.736 16.52 11.16 15.448 11.16C14.392 11.16 13.656 11.672 13.144 12.52L11.944 11.48C12.616 10.504 13.64 9.64 15.496 9.64C17.608 9.64 19.128 10.712 19.128 12.52C19.128 13.944 18.152 14.824 16.984 15.08V15.16C18.248 15.4 19.32 16.312 19.32 17.928C19.32 19.88 17.72 21.192 15.336 21.192C13.256 21.192 12.216 20.216 11.512 19.192L12.84 18.152C13.384 19.048 14.04 19.672 15.336 19.672C16.696 19.672 17.448 18.984 17.448 17.832V17.72C17.448 16.584 16.648 15.96 15.24 15.96H14.056V14.424Z" fill="#D2D6DB"/>
</svg>
