<svg width="20" height="20" viewBox="0 0 20 20" fill="none" xmlns="http://www.w3.org/2000/svg">
<path fill-rule="evenodd" clip-rule="evenodd" d="M9.99984 13.1248C8.27395 13.1248 6.87484 11.7257 6.87484 9.99984C6.87484 8.27395 8.27395 6.87484 9.99984 6.87484C11.7257 6.87484 13.1248 8.27395 13.1248 9.99984C13.1248 11.7257 11.7257 13.1248 9.99984 13.1248ZM8.12484 9.99984C8.12484 11.0354 8.9643 11.8748 9.99984 11.8748C11.0354 11.8748 11.8748 11.0354 11.8748 9.99984C11.8748 8.9643 11.0354 8.12484 9.99984 8.12484C8.9643 8.12484 8.12484 8.9643 8.12484 9.99984Z" fill="white"/>
<path fill-rule="evenodd" clip-rule="evenodd" d="M9.99984 3.5415C7.8577 3.5415 6.02146 4.48434 4.60009 5.59399C3.17745 6.70464 2.12589 8.01629 1.53768 8.8411L1.49333 8.90295C1.28237 9.19635 1.0415 9.53133 1.0415 9.99984C1.0415 10.4683 1.28237 10.8033 1.49333 11.0967L1.53768 11.1586C2.12589 11.9834 3.17745 13.295 4.60009 14.4057C6.02146 15.5153 7.8577 16.4582 9.99984 16.4582C12.142 16.4582 13.9782 15.5153 15.3996 14.4057C16.8222 13.295 17.8738 11.9834 18.462 11.1586L18.5063 11.0967C18.7173 10.8033 18.9582 10.4683 18.9582 9.99984C18.9582 9.53133 18.7173 9.19635 18.5063 8.90295L18.462 8.8411C17.8738 8.01629 16.8222 6.70463 15.3996 5.59399C13.9782 4.48434 12.142 3.5415 9.99984 3.5415ZM2.5554 9.56688C3.10556 8.79541 4.07682 7.58832 5.3693 6.57929C6.66307 5.56927 8.23429 4.7915 9.99984 4.7915C11.7654 4.7915 13.3366 5.56926 14.6304 6.57929C15.9229 7.58832 16.8941 8.79541 17.4443 9.56688C17.5804 9.75773 17.6452 9.85092 17.6838 9.92511C17.7083 9.97226 17.7082 9.98519 17.7082 9.99784L17.7082 9.99984L17.7082 10.0018C17.7082 10.0145 17.7083 10.0274 17.6838 10.0746C17.6452 10.1488 17.5804 10.2419 17.4443 10.4328C16.8941 11.2043 15.9229 12.4114 14.6304 13.4204C13.3366 14.4304 11.7654 15.2082 9.99984 15.2082C8.23429 15.2082 6.66307 14.4304 5.3693 13.4204C4.07682 12.4114 3.10557 11.2043 2.5554 10.4328C2.41929 10.2419 2.35452 10.1488 2.31591 10.0746C2.29136 10.0274 2.29143 10.0145 2.2915 10.0018L2.2915 9.99984L2.2915 9.99784C2.29143 9.98519 2.29136 9.97226 2.31591 9.92511C2.35452 9.85092 2.41929 9.75773 2.5554 9.56688Z" fill="white"/>
</svg>
