<svg width="20" height="20" viewBox="0 0 20 20" fill="none" xmlns="http://www.w3.org/2000/svg">
<path fill-rule="evenodd" clip-rule="evenodd" d="M5.62516 10.0002C5.62516 7.58392 7.58392 5.62516 10.0002 5.62516C12.4164 5.62516 14.3752 7.58392 14.3752 10.0002C14.3752 12.4164 12.4164 14.3752 10.0002 14.3752C7.58392 14.3752 5.62516 12.4164 5.62516 10.0002ZM10.0002 6.87516C8.27427 6.87516 6.87516 8.27427 6.87516 10.0002C6.87516 11.7261 8.27427 13.1252 10.0002 13.1252C11.7261 13.1252 13.1252 11.7261 13.1252 10.0002C13.1252 8.27427 11.7261 6.87516 10.0002 6.87516Z" fill="white"/>
<path d="M14.59 6.25016C15.0502 6.25016 15.4233 5.87707 15.4233 5.41683C15.4233 4.95659 15.0502 4.5835 14.59 4.5835H14.5825C14.1223 4.5835 13.7492 4.95659 13.7492 5.41683C13.7492 5.87707 14.1223 6.25016 14.5825 6.25016H14.59Z" fill="white"/>
<path fill-rule="evenodd" clip-rule="evenodd" d="M10.0478 1.4585C11.8734 1.45849 13.3073 1.45848 14.4268 1.60899C15.574 1.76323 16.4842 2.08576 17.1994 2.80092C17.9146 3.51609 18.2371 4.4263 18.3913 5.57352C18.5418 6.69302 18.5418 8.12692 18.5418 9.95249V10.0478C18.5418 11.8734 18.5418 13.3073 18.3913 14.4268C18.2371 15.574 17.9146 16.4842 17.1994 17.1994C16.4842 17.9146 15.574 18.2371 14.4268 18.3913C13.3073 18.5418 11.8734 18.5418 10.0478 18.5418H9.95252C8.12695 18.5418 6.69303 18.5418 5.57352 18.3913C4.4263 18.2371 3.51609 17.9146 2.80092 17.1994C2.08576 16.4842 1.76323 15.574 1.60899 14.4268C1.45848 13.3073 1.45849 11.8734 1.4585 10.0478V9.95252C1.45849 8.12693 1.45848 6.69303 1.60899 5.57352C1.76323 4.4263 2.08576 3.51609 2.80092 2.80092C3.51609 2.08576 4.4263 1.76323 5.57352 1.60899C6.69302 1.45848 8.12691 1.45849 9.95249 1.4585H10.0478ZM5.74008 2.84784C4.73147 2.98345 4.12901 3.2406 3.68481 3.68481C3.2406 4.12901 2.98345 4.73147 2.84784 5.74008C2.70982 6.76666 2.7085 8.11652 2.7085 10.0002C2.7085 11.8838 2.70982 13.2337 2.84784 14.2602C2.98345 15.2689 3.2406 15.8713 3.68481 16.3155C4.12901 16.7597 4.73147 17.0169 5.74008 17.1525C6.76666 17.2905 8.11652 17.2918 10.0002 17.2918C11.8838 17.2918 13.2337 17.2905 14.2603 17.1525C15.2689 17.0169 15.8713 16.7597 16.3155 16.3155C16.7597 15.8713 17.0169 15.2689 17.1525 14.2602C17.2905 13.2337 17.2918 11.8838 17.2918 10.0002C17.2918 8.11652 17.2905 6.76666 17.1525 5.74007C17.0169 4.73147 16.7597 4.12901 16.3155 3.68481C15.8713 3.2406 15.2689 2.98345 14.2603 2.84784C13.2337 2.70982 11.8838 2.7085 10.0002 2.7085C8.11652 2.7085 6.76666 2.70982 5.74008 2.84784Z" fill="white"/>
</svg>
