<svg width="20" height="21" viewBox="0 0 20 21" fill="none" xmlns="http://www.w3.org/2000/svg">
<path d="M9.9991 18.5298H10C13.7033 18.5298 15.5617 18.5298 16.8433 17.2481C18.055 16.0348 18.1175 14.2339 18.1233 11.1556C18.1233 10.8106 17.8442 10.5298 17.4992 10.5298H17.4975C17.1525 10.5298 16.8725 10.809 16.8725 11.154C16.8667 14.1465 16.7792 15.5439 15.9583 16.3647C15.0425 17.2797 13.3575 17.2798 9.99919 17.2798C6.64085 17.2798 4.955 17.2797 4.04 16.3647C3.125 15.4489 3.125 13.7631 3.125 10.4048C3.125 7.04647 3.12502 5.36066 4.04085 4.44482C4.86085 3.62399 6.25831 3.53562 9.25081 3.52979C9.59665 3.52979 9.875 3.24897 9.875 2.90397C9.87417 2.55897 9.595 2.27979 9.25 2.27979H9.24833C6.16916 2.28562 4.36832 2.34811 3.15666 3.56144C1.875 4.84227 1.875 6.70142 1.875 10.4047C1.875 14.108 1.875 15.9665 3.15666 17.2481C4.43748 18.5298 6.29666 18.5298 9.9991 18.5298Z" fill="#1B8354"/>
<path d="M8.76675 11.7299C8.88925 11.8507 9.04841 11.9115 9.20758 11.9115C9.36842 11.9115 9.5284 11.849 9.6509 11.7265L16.8001 4.5357C16.8492 5.0407 16.8876 5.83821 16.8701 7.08404C16.8651 7.42988 17.1409 7.71316 17.4859 7.71816C17.8326 7.72649 18.1151 7.44735 18.1201 7.10235C18.1717 3.47804 17.7821 3.08685 17.5728 2.87679C17.3628 2.66675 16.9718 2.27572 13.3501 2.32737C13.0051 2.33237 12.7292 2.61648 12.7342 2.96148C12.7392 3.30315 13.0184 3.57737 13.3592 3.57737H13.3684C14.6192 3.55987 15.4175 3.59817 15.9209 3.64817L8.76422 10.8457C8.52089 11.0907 8.52175 11.4865 8.76675 11.7299Z" fill="#1B8354"/>
</svg>
