<svg width="66" height="68" viewBox="0 0 66 68" fill="none" xmlns="http://www.w3.org/2000/svg">
<rect width="66" height="68" fill="white"/>
<path d="M48.9773 25.4111C48.6042 25.1856 47.9242 24.8055 46.9854 24.4898C45.6314 24.0259 43.7418 23.678 41.5031 24.0581C40.7509 24.187 39.9566 24.3996 39.1321 24.7153C39.0539 24.7475 38.9757 24.7733 38.8974 24.8055C38.4762 24.973 38.061 25.1792 37.6397 25.4047C37.2787 25.598 36.9236 25.8106 36.5686 26.0425C35.7562 26.5644 34.9558 27.1572 34.1795 27.8014C33.2949 22.0737 33.7282 16.7583 33.9328 14.1489C33.9328 14.136 33.9508 14.1296 33.9628 14.136C35.8584 15.4117 35.3289 18.9747 34.9257 19.9991C34.9197 20.0184 34.9437 20.0313 34.9618 20.0184C37.3208 17.0353 36.1714 13.7366 35.6839 12.9054C35.6719 12.8861 35.696 12.8668 35.714 12.8797C36.057 13.176 36.3339 13.4917 36.5686 13.8139C37.2967 14.8125 37.5675 15.8885 37.6397 16.8421C37.6758 17.3446 37.6638 17.8085 37.6397 18.208C37.6337 18.3175 37.6277 18.4141 37.6157 18.5108C37.6157 18.5237 37.6277 18.5301 37.6397 18.5237C37.6457 18.5237 37.6518 18.5237 37.6518 18.5172C38.2896 17.1771 38.5966 15.154 37.6397 13.1889C37.381 12.6542 37.0319 12.1258 36.5686 11.6169C36.4362 11.4687 36.2917 11.3269 36.1413 11.1787C36.1292 11.1659 36.1413 11.1401 36.1593 11.1465C36.3038 11.1852 36.4362 11.2303 36.5686 11.2754C36.9718 11.4236 37.3268 11.6297 37.6397 11.881C38.3558 12.448 38.8433 13.2211 39.1321 14.0329C39.3728 14.703 39.4812 15.3924 39.4812 16.0045C39.4812 16.0302 39.5113 16.0303 39.5173 16.0109C39.9626 14.2649 39.6918 12.9441 39.1321 11.9841C38.735 11.2947 38.1873 10.7922 37.6397 10.4378C37.2666 10.1994 36.8935 10.0319 36.5686 9.92882C36.376 9.86439 36.2075 9.82573 36.057 9.8064C36.033 9.8064 36.039 9.76775 36.063 9.76775C36.2376 9.74842 36.4061 9.74197 36.5686 9.73553C36.9657 9.72909 37.3208 9.76775 37.6397 9.82573C38.2716 9.95459 38.765 10.1865 39.1321 10.4571C39.7339 10.8888 40.0348 11.3978 40.1371 11.604C40.1431 11.6233 40.1732 11.6104 40.1732 11.5911C40.089 10.6698 39.6918 9.94815 39.1382 9.43271C38.7109 9.03325 38.1873 8.75621 37.6457 8.58869C37.2907 8.48561 36.9296 8.42763 36.5746 8.42118C36.0931 8.41474 35.6298 8.49849 35.2386 8.67889C35.2206 8.68534 35.2085 8.66601 35.2146 8.64668C35.5636 8.11192 36.057 7.78978 36.5746 7.61582C36.9356 7.49985 37.3027 7.45474 37.6457 7.48051C37.9767 7.49984 38.2776 7.57715 38.5243 7.69957C38.5424 7.70601 38.5544 7.68669 38.5424 7.66736C38.2716 7.33878 37.9647 7.08105 37.6457 6.88777C37.3027 6.68159 36.9417 6.55918 36.5746 6.51408C35.6177 6.39811 34.6429 6.83623 33.9929 7.88642C33.9869 7.89931 33.9689 7.89931 33.9628 7.88642C33.8365 7.64803 33.7161 7.38387 33.6078 7.10682C33.349 6.46253 33.1384 5.74093 33.0241 5.01933C33.018 4.99356 32.994 4.99356 32.994 5.01933C32.8796 5.74093 32.663 6.46898 32.4042 7.11327C32.2899 7.39032 32.1756 7.64804 32.0492 7.87998C32.0432 7.89287 32.0251 7.89287 32.0191 7.87998C30.8877 6.04375 28.7635 6.08241 27.4696 7.66736C27.4576 7.68025 27.4696 7.70601 27.4877 7.69957C28.3482 7.26145 29.9791 7.39031 30.7975 8.64668C30.8095 8.66601 30.7915 8.68534 30.7734 8.67889C29.5157 8.11192 27.5659 8.47916 26.5248 9.8064C26.1517 10.2767 25.899 10.8759 25.8328 11.5911C25.8328 11.6104 25.8569 11.6233 25.8689 11.604C25.9471 11.4429 26.1517 11.095 26.5248 10.7406C27.1326 10.1672 28.1918 9.58735 29.943 9.76131C29.967 9.76775 29.967 9.79996 29.949 9.79996C29.0523 9.91594 27.2049 10.7728 26.5248 12.7315C26.2239 13.5948 26.1457 14.6772 26.4827 16.0045C26.4887 16.0238 26.5188 16.0238 26.5188 15.998C26.5188 15.9658 26.5188 15.9401 26.5248 15.9078C26.5429 14.1296 27.4937 11.7457 29.8467 11.1401C29.8647 11.1336 29.8768 11.1594 29.8647 11.1723C27.2349 13.6464 27.4937 16.7003 28.3543 18.5043C28.3663 18.5237 28.3904 18.5172 28.3904 18.4979C28.276 17.132 28.1858 14.703 30.292 12.8668C30.31 12.8539 30.3341 12.8732 30.3221 12.8926C29.8346 13.7301 28.6852 17.0225 31.0442 20.0055C31.0563 20.0249 31.0863 20.012 31.0803 19.9862C30.6831 18.9682 30.1536 15.3988 32.0432 14.1231C32.0552 14.1167 32.0733 14.1232 32.0733 14.136C32.2779 16.7454 32.7111 22.0608 31.8265 27.7886C30.304 26.5386 28.6973 25.4433 27.1086 24.799C26.91 24.7217 26.7174 24.6509 26.5309 24.58C24.888 24.0001 23.3836 23.8391 22.0717 23.9035C19.9654 24.0001 18.3527 24.6766 17.4681 25.147C17.2875 25.2436 17.1371 25.3338 17.0227 25.4047C16.9746 25.4369 17.0107 25.5078 17.0588 25.4884C17.1972 25.4433 17.3296 25.3982 17.4681 25.3596C19.0868 24.8699 20.6214 24.7411 22.0717 24.8764C23.6544 25.0245 25.1408 25.4884 26.5309 26.1585C28.4806 27.0992 30.2438 28.4393 31.8386 29.8567C29.5879 31.9571 27.6863 33.9995 26.5309 34.7147C26.4707 34.7469 26.4165 34.7856 26.3624 34.8178C26.0855 34.4119 25.6041 34.1799 25.0806 34.3023C24.6232 34.4119 24.2501 34.8049 24.1478 35.2881C24.0575 35.7198 24.1599 36.1901 24.3885 36.4349C25.0023 37.0921 25.7124 37.1372 26.5309 36.77C28.0895 36.0677 30.0272 33.8642 32.4042 31.5319C32.6028 31.3386 32.8014 31.1389 33.006 30.9456C33.2106 31.1389 33.4092 31.3322 33.6078 31.5254C34.685 32.5821 35.6719 33.6129 36.5746 34.4892C36.9477 34.85 37.3027 35.185 37.6457 35.4814C38.1753 35.9453 38.6748 36.3254 39.1382 36.5896C40.0468 37.105 40.8352 37.1694 41.5092 36.5316C41.5453 36.4994 41.5814 36.4672 41.6175 36.4285C41.7739 36.261 41.9545 35.7133 41.8582 35.2817C41.804 35.0304 41.6777 34.8049 41.5031 34.6309C41.3467 34.4698 41.1421 34.3474 40.9254 34.2959C40.4019 34.1735 39.9205 34.4054 39.6436 34.8113C39.4872 34.7276 39.3187 34.6116 39.1321 34.4763C38.7049 34.1606 38.2054 33.716 37.6397 33.1877C37.3027 32.872 36.9477 32.5241 36.5686 32.1568C35.8344 31.4417 35.028 30.6556 34.1735 29.8503C34.9317 29.1738 35.7321 28.5166 36.5686 27.911C36.9176 27.6597 37.2726 27.4149 37.6397 27.1829C38.1272 26.8737 38.6206 26.5902 39.1321 26.326C39.8964 25.933 40.6847 25.6044 41.5031 25.3531C43.2002 24.8313 45.0236 24.6573 46.9854 24.9923C47.6233 25.1019 48.2732 25.2629 48.9412 25.482C48.9893 25.5142 49.0254 25.4433 48.9773 25.4111Z" fill="#9DA4AE"/>
<path d="M9.96172 58C8.50972 58 7.92172 57.412 7.92172 56.152V56.008H7.86172C7.62172 56.896 7.11772 57.268 6.28972 57.268C5.18572 57.268 4.57372 56.644 4.57372 55.576C4.57372 54.484 5.20972 53.8 6.58972 53.068L7.86172 52.396V51.76H8.95372V55.888C8.95372 56.464 9.22972 56.644 9.85372 56.644H10.2497V57.712L9.96172 58ZM6.55372 55.912C7.51372 55.912 7.86172 55.708 7.86172 55.096V53.476L6.78172 54.028C5.92972 54.472 5.55772 54.76 5.55772 55.252C5.55772 55.72 5.82172 55.912 6.55372 55.912ZM8.34172 50.788C7.98172 50.788 7.74172 50.572 7.74172 50.104C7.74172 49.624 7.98172 49.42 8.34172 49.42H8.52172C8.88172 49.42 9.13372 49.624 9.13372 50.104C9.13372 50.572 8.88172 50.788 8.52172 50.788H8.34172ZM6.64972 50.788C6.28972 50.788 6.04972 50.572 6.04972 50.104C6.04972 49.624 6.28972 49.42 6.64972 49.42H6.82972C7.18972 49.42 7.44172 49.624 7.44172 50.104C7.44172 50.572 7.18972 50.788 6.82972 50.788H6.64972ZM20.618 58C20.03 58 19.598 57.904 19.214 57.58C18.746 57.868 18.098 58 17.282 58H13.778C12.602 58 11.966 57.568 11.762 56.632H11.69C11.498 57.616 11.03 58 9.962 58V56.932L10.25 56.644H10.646C11.318 56.644 11.642 56.332 11.642 55.696V54.832H12.686V55.696C12.686 56.128 12.806 56.404 13.082 56.536L13.67 55.528C14.846 53.488 16.058 52.804 17.57 52.804C19.262 52.804 20.198 53.8 20.198 55.444C20.198 55.888 20.138 56.272 20.018 56.584C20.21 56.632 20.402 56.644 20.618 56.644H20.906V57.712L20.618 58ZM17.282 56.644C18.614 56.644 19.202 56.356 19.202 55.468C19.202 54.604 18.722 54.172 17.75 54.172H17.39C16.046 54.172 15.338 54.484 14.498 55.78L13.982 56.572L14.018 56.644H17.282ZM20.6143 58V56.932L20.9023 56.644H21.2983C21.9703 56.644 22.2943 56.332 22.2943 55.696V53.872H23.3383V55.696C23.3383 56.344 23.6383 56.644 24.2743 56.644H24.7303V57.712L24.4303 58C23.2543 58 22.6183 57.568 22.4143 56.632H22.3423C22.1503 57.616 21.6823 58 20.6143 58ZM22.7143 52.648C22.3543 52.648 22.1143 52.432 22.1143 51.964C22.1143 51.484 22.3543 51.28 22.7143 51.28H22.8943C23.2543 51.28 23.5063 51.484 23.5063 51.964C23.5063 52.432 23.2543 52.648 22.8943 52.648H22.7143ZM24.4464 58V56.932L24.7344 56.644C25.2264 56.644 25.4904 56.62 25.7184 56.512C25.6944 56.38 25.6824 56.248 25.6824 56.092C25.6824 55.204 26.2584 54.46 27.3864 53.752L28.0464 53.344H29.2584L30.1584 55.756C30.4224 56.464 30.6264 56.644 31.1664 56.644H31.4544V57.712L31.1664 58C30.2904 58 29.8344 57.76 29.4504 57.112L29.3784 57.124V58H27.9024C26.8344 58 26.1504 57.616 25.8504 56.956H25.7784C25.5624 57.664 25.1664 58 24.4464 58ZM26.6064 55.96C26.6064 56.44 27.0024 56.644 27.7224 56.644H29.2224C29.1624 56.512 29.1144 56.368 29.0544 56.212L28.4184 54.508L27.6984 54.868C27.0624 55.192 26.6064 55.54 26.6064 55.96ZM31.1612 58V56.932L31.4492 56.644H31.8692C32.5652 56.644 32.8172 56.344 32.8172 55.696V49.12H33.9452V55.696C33.9452 57.268 33.3452 58 31.8692 58H31.1612ZM35.6053 58V49.12H36.7213V58H35.6053ZM39.6706 60.88V59.524H40.1266C41.7466 59.524 42.2746 58.66 42.2746 57.364C42.2746 56.932 42.2146 56.464 42.1426 55.996L41.8906 54.544L42.9226 54.352L43.0906 55.36C43.2226 56.116 43.2946 56.788 43.2946 57.352C43.2946 59.332 42.3946 60.88 40.1386 60.88H39.6706ZM46.7899 58C45.2179 58 44.5819 57.412 44.5819 55.888V49.12H45.6979V55.78C45.6979 56.44 45.9979 56.644 46.7059 56.644H47.1019V57.712L46.8019 58H46.7899ZM46.8175 58V56.932L47.1055 56.644H49.0495L49.0615 56.596L47.5975 54.784V53.392C48.3295 53.032 49.2295 52.816 50.0335 52.816C51.6655 52.816 52.5055 53.452 52.5055 54.652C52.5055 55.504 52.1455 55.864 51.1975 56.62L51.2095 56.644H52.9975V57.712L52.7095 58H52.2055C51.4735 58 50.7055 57.82 50.0935 57.412C49.4815 57.82 48.7735 58 48.0535 58H46.8175ZM48.5455 54.388V54.436L50.1895 56.392L50.5735 56.068C51.1975 55.54 51.5215 55.324 51.5215 54.904C51.5215 54.412 51.0415 54.184 50.0215 54.184C49.5415 54.184 49.0255 54.256 48.5455 54.388ZM52.712 58V56.932L53 56.644H53.24C53.924 56.644 54.212 56.464 54.524 55.828L55.016 54.832L55.916 55.288L55.364 56.356L55.448 56.404C55.928 56.68 56.36 56.8 56.828 56.8C57.548 56.8 57.872 56.5 57.872 55.696V54.832H58.916V55.696C58.916 56.476 59.144 56.776 59.66 56.776H59.84C60.284 56.776 60.524 56.536 60.524 55.996C60.524 55.756 60.488 55.372 60.416 54.892L60.308 54.256L61.34 54.1L61.436 54.724C61.496 55.204 61.532 55.648 61.532 55.996C61.532 57.4 60.92 58.144 59.744 58.144C58.724 58.144 58.172 57.676 58.004 56.74H57.932C57.8 57.664 57.332 58.144 56.6 58.144C56.132 58.144 55.676 57.976 55.016 57.58L54.692 57.388C54.224 57.88 53.66 58 52.712 58ZM59.168 53.608C58.808 53.608 58.556 53.392 58.556 52.924C58.556 52.444 58.808 52.24 59.168 52.24H59.336C59.696 52.24 59.948 52.444 59.948 52.924C59.948 53.392 59.696 53.608 59.336 53.608H59.168ZM57.464 53.608C57.104 53.608 56.864 53.392 56.864 52.924C56.864 52.444 57.104 52.24 57.464 52.24H57.644C58.004 52.24 58.256 52.444 58.256 52.924C58.256 53.392 58.004 53.608 57.644 53.608H57.464ZM58.316 52.024C57.968 52.024 57.716 51.82 57.716 51.352C57.716 50.896 57.968 50.692 58.316 50.692H58.496C58.844 50.692 59.084 50.896 59.084 51.352C59.084 51.82 58.844 52.024 58.496 52.024H58.316Z" fill="#6C737F"/>
</svg>
