<svg width="20" height="20" viewBox="0 0 20 20" fill="none" xmlns="http://www.w3.org/2000/svg">
<path d="M9.7915 6.24984C9.7915 5.90466 9.51168 5.62484 9.1665 5.62484C8.82133 5.62484 8.5415 5.90466 8.5415 6.24984V8.5415H6.24984C5.90466 8.5415 5.62484 8.82133 5.62484 9.1665C5.62484 9.51168 5.90466 9.7915 6.24984 9.7915H8.5415V12.0832C8.5415 12.4283 8.82133 12.7082 9.1665 12.7082C9.51168 12.7082 9.7915 12.4283 9.7915 12.0832V9.7915H12.0832C12.4283 9.7915 12.7082 9.51168 12.7082 9.1665C12.7082 8.82133 12.4283 8.5415 12.0832 8.5415H9.7915V6.24984Z" fill="white"/>
<path fill-rule="evenodd" clip-rule="evenodd" d="M1.0415 9.1665C1.0415 4.67919 4.67919 1.0415 9.1665 1.0415C13.6538 1.0415 17.2915 4.67919 17.2915 9.1665C17.2915 11.1852 16.5553 13.0319 15.3368 14.4529L18.7751 17.8912C19.0192 18.1353 19.0192 18.531 18.7751 18.7751C18.531 19.0192 18.1353 19.0192 17.8912 18.7751L14.4529 15.3368C13.0319 16.5553 11.1852 17.2915 9.1665 17.2915C4.67919 17.2915 1.0415 13.6538 1.0415 9.1665ZM9.1665 2.2915C5.36955 2.2915 2.2915 5.36955 2.2915 9.1665C2.2915 12.9635 5.36955 16.0415 9.1665 16.0415C12.9635 16.0415 16.0415 12.9635 16.0415 9.1665C16.0415 5.36955 12.9635 2.2915 9.1665 2.2915Z" fill="white"/>
</svg>
